<mxfile host="app.diagrams.net" modified="2023-09-12T11:01:25.076Z" agent="Mozilla/5.0 (Macintosh; Intel Mac OS X 10_15_7) AppleWebKit/537.36 (KHTML, like Gecko) Chrome/117.0.0.0 Safari/537.36" etag="fnU6_yhn21GAstEKRf3j" version="21.7.4" type="device">
  <diagram name="Page-1" id="Jn-7KWDVv8dg3_8LK_aw">
    <mxGraphModel dx="1454" dy="407" grid="1" gridSize="10" guides="1" tooltips="1" connect="1" arrows="1" fold="1" page="1" pageScale="1" pageWidth="850" pageHeight="1100" math="0" shadow="0">
      <root>
        <mxCell id="0" />
        <mxCell id="1" parent="0" />
        <mxCell id="5x88_MfWowOsIWMSALBa-9" value="" style="sketch=0;outlineConnect=0;fontColor=#ffffff;fillColor=#6d8764;strokeColor=#3A5431;dashed=0;verticalLabelPosition=bottom;verticalAlign=top;align=center;html=1;fontSize=12;fontStyle=0;aspect=fixed;pointerEvents=1;shape=mxgraph.aws4.client;" parent="1" vertex="1">
          <mxGeometry x="-270" y="440" width="78" height="76" as="geometry" />
        </mxCell>
        <mxCell id="5x88_MfWowOsIWMSALBa-10" value="&lt;span style=&quot;font-size: 16px;&quot;&gt;Client 1&lt;/span&gt;" style="rounded=1;whiteSpace=wrap;html=1;strokeWidth=3;fillColor=#6d8764;fontColor=#ffffff;strokeColor=#3A5431;fontFamily=Verdana;fontStyle=1" parent="1" vertex="1">
          <mxGeometry x="-180" y="410" width="150" height="60" as="geometry" />
        </mxCell>
        <mxCell id="5x88_MfWowOsIWMSALBa-11" value="&lt;span style=&quot;font-size: 16px;&quot;&gt;Client 2&lt;/span&gt;" style="rounded=1;whiteSpace=wrap;html=1;strokeWidth=3;fillColor=#6d8764;fontColor=#ffffff;strokeColor=#3A5431;fontFamily=Verdana;fontStyle=1" parent="1" vertex="1">
          <mxGeometry x="-180" y="480" width="150" height="60" as="geometry" />
        </mxCell>
        <mxCell id="5x88_MfWowOsIWMSALBa-15" value="" style="group" parent="1" vertex="1" connectable="0">
          <mxGeometry x="310" y="180" width="210" height="78" as="geometry" />
        </mxCell>
        <mxCell id="5x88_MfWowOsIWMSALBa-1" value="" style="sketch=0;outlineConnect=0;fillColor=#647687;strokeColor=#314354;dashed=0;verticalLabelPosition=bottom;verticalAlign=top;align=center;html=1;fontSize=12;fontStyle=0;aspect=fixed;pointerEvents=1;shape=mxgraph.aws4.traditional_server;fontColor=#ffffff;" parent="5x88_MfWowOsIWMSALBa-15" vertex="1">
          <mxGeometry width="45" height="78" as="geometry" />
        </mxCell>
        <mxCell id="5x88_MfWowOsIWMSALBa-2" value="&lt;span&gt;&lt;font style=&quot;font-size: 16px;&quot;&gt;View Server&lt;/font&gt;&lt;/span&gt;" style="rounded=1;whiteSpace=wrap;html=1;strokeWidth=3;fillColor=#647687;fontColor=#ffffff;strokeColor=#314354;fontFamily=Verdana;fontStyle=1" parent="5x88_MfWowOsIWMSALBa-15" vertex="1">
          <mxGeometry x="60" y="9" width="150" height="60" as="geometry" />
        </mxCell>
        <mxCell id="5x88_MfWowOsIWMSALBa-3" value="" style="sketch=0;outlineConnect=0;fontColor=#ffffff;fillColor=#76608a;strokeColor=#432D57;dashed=0;verticalLabelPosition=bottom;verticalAlign=top;align=center;html=1;fontSize=12;fontStyle=0;aspect=fixed;pointerEvents=1;shape=mxgraph.aws4.traditional_server;" parent="1" vertex="1">
          <mxGeometry x="120" y="830" width="45" height="78" as="geometry" />
        </mxCell>
        <mxCell id="5x88_MfWowOsIWMSALBa-6" value="&lt;span style=&quot;font-size: 16px;&quot;&gt;Server A&lt;/span&gt;" style="rounded=1;whiteSpace=wrap;html=1;strokeWidth=3;fillColor=#76608a;fontColor=#ffffff;strokeColor=#432D57;fontFamily=Verdana;fontStyle=1" parent="1" vertex="1">
          <mxGeometry x="110" y="470" width="150" height="60" as="geometry" />
        </mxCell>
        <mxCell id="5x88_MfWowOsIWMSALBa-16" value="&lt;span style=&quot;font-size: 16px;&quot;&gt;Server B&lt;/span&gt;" style="rounded=1;whiteSpace=wrap;html=1;strokeWidth=3;fillColor=#76608a;fontColor=#ffffff;strokeColor=#432D57;fontFamily=Verdana;fontStyle=1" parent="1" vertex="1">
          <mxGeometry x="370" y="470" width="150" height="60" as="geometry" />
        </mxCell>
        <mxCell id="5x88_MfWowOsIWMSALBa-17" value="&lt;span style=&quot;font-size: 16px;&quot;&gt;Server C&lt;/span&gt;" style="rounded=1;whiteSpace=wrap;html=1;strokeWidth=3;fillColor=#76608a;fontColor=#ffffff;strokeColor=#432D57;fontFamily=Verdana;fontStyle=1" parent="1" vertex="1">
          <mxGeometry x="630" y="470" width="150" height="60" as="geometry" />
        </mxCell>
        <mxCell id="5x88_MfWowOsIWMSALBa-18" value="" style="endArrow=blockThin;startArrow=none;html=1;rounded=0;entryX=0.5;entryY=1;entryDx=0;entryDy=0;exitX=0.5;exitY=0;exitDx=0;exitDy=0;startFill=0;strokeWidth=3;endFill=1;fillColor=#e51400;strokeColor=#B20000;" parent="1" source="5x88_MfWowOsIWMSALBa-6" target="5x88_MfWowOsIWMSALBa-2" edge="1">
          <mxGeometry width="50" height="50" relative="1" as="geometry">
            <mxPoint x="200" y="420" as="sourcePoint" />
            <mxPoint x="250" y="370" as="targetPoint" />
          </mxGeometry>
        </mxCell>
        <mxCell id="5x88_MfWowOsIWMSALBa-19" value="PING" style="edgeLabel;html=1;align=center;verticalAlign=middle;resizable=0;points=[];fontFamily=Verdana;fontStyle=1;fontColor=#B20000;" parent="5x88_MfWowOsIWMSALBa-18" vertex="1" connectable="0">
          <mxGeometry x="0.49" y="-1" relative="1" as="geometry">
            <mxPoint x="-99" y="54" as="offset" />
          </mxGeometry>
        </mxCell>
        <mxCell id="5x88_MfWowOsIWMSALBa-20" value="" style="endArrow=blockThin;startArrow=none;html=1;rounded=0;entryX=0.5;entryY=1;entryDx=0;entryDy=0;exitX=0.5;exitY=0;exitDx=0;exitDy=0;startFill=0;strokeWidth=3;endFill=1;fillColor=#e51400;strokeColor=#B20000;" parent="1" source="5x88_MfWowOsIWMSALBa-16" target="5x88_MfWowOsIWMSALBa-2" edge="1">
          <mxGeometry width="50" height="50" relative="1" as="geometry">
            <mxPoint x="195" y="480" as="sourcePoint" />
            <mxPoint x="455" y="259" as="targetPoint" />
          </mxGeometry>
        </mxCell>
        <mxCell id="5x88_MfWowOsIWMSALBa-22" value="" style="endArrow=blockThin;startArrow=none;html=1;rounded=0;entryX=0.5;entryY=1;entryDx=0;entryDy=0;exitX=0.5;exitY=0;exitDx=0;exitDy=0;startFill=0;strokeWidth=3;endFill=1;fillColor=#e51400;strokeColor=#B20000;" parent="1" source="5x88_MfWowOsIWMSALBa-17" target="5x88_MfWowOsIWMSALBa-2" edge="1">
          <mxGeometry width="50" height="50" relative="1" as="geometry">
            <mxPoint x="205" y="490" as="sourcePoint" />
            <mxPoint x="465" y="269" as="targetPoint" />
          </mxGeometry>
        </mxCell>
        <mxCell id="5x88_MfWowOsIWMSALBa-25" value="" style="points=[[0.145,0.145,0],[0.5,0,0],[0.855,0.145,0],[1,0.5,0],[0.855,0.855,0],[0.5,1,0],[0.145,0.855,0],[0,0.5,0]];shape=mxgraph.bpmn.event;html=1;verticalLabelPosition=bottom;labelBackgroundColor=#ffffff;verticalAlign=top;align=center;perimeter=ellipsePerimeter;outlineConnect=0;aspect=fixed;outline=standard;symbol=timer;strokeWidth=2;fillColor=none;fontColor=#ffffff;strokeColor=#6D1F00;" parent="1" vertex="1">
          <mxGeometry x="110" y="550" width="40" height="40" as="geometry" />
        </mxCell>
        <mxCell id="5x88_MfWowOsIWMSALBa-26" value="&lt;div style=&quot;&quot;&gt;&lt;span style=&quot;background-color: initial;&quot;&gt;TimerPing&lt;/span&gt;&lt;/div&gt;&lt;div style=&quot;&quot;&gt;&lt;span style=&quot;background-color: initial;&quot;&gt;25ms&lt;/span&gt;&lt;/div&gt;" style="text;html=1;strokeColor=none;fillColor=none;align=left;verticalAlign=top;whiteSpace=wrap;rounded=0;fontFamily=Verdana;fontStyle=1;fontColor=#6D1F00;spacing=1;" parent="1" vertex="1">
          <mxGeometry x="155" y="540" width="80" height="40" as="geometry" />
        </mxCell>
        <mxCell id="5x88_MfWowOsIWMSALBa-27" value="&lt;div style=&quot;font-size: 9px;&quot;&gt;&lt;span style=&quot;color: rgb(51, 51, 51); background-color: initial; font-weight: normal;&quot;&gt;send to view-server:&lt;/span&gt;&lt;/div&gt;&lt;div style=&quot;font-size: 9px;&quot;&gt;&lt;br&gt;&lt;/div&gt;" style="text;html=1;strokeColor=none;fillColor=none;align=left;verticalAlign=top;whiteSpace=wrap;rounded=0;fontFamily=Verdana;fontStyle=1;fontColor=#6D1F00;fontSize=9;spacing=2;" parent="1" vertex="1">
          <mxGeometry x="155" y="580" width="165" height="30" as="geometry" />
        </mxCell>
        <mxCell id="5x88_MfWowOsIWMSALBa-28" value="" style="points=[[0.145,0.145,0],[0.5,0,0],[0.855,0.145,0],[1,0.5,0],[0.855,0.855,0],[0.5,1,0],[0.145,0.855,0],[0,0.5,0]];shape=mxgraph.bpmn.event;html=1;verticalLabelPosition=bottom;labelBackgroundColor=#ffffff;verticalAlign=top;align=center;perimeter=ellipsePerimeter;outlineConnect=0;aspect=fixed;outline=standard;symbol=timer;strokeWidth=2;fillColor=none;fontColor=#ffffff;strokeColor=#6D1F00;" parent="1" vertex="1">
          <mxGeometry x="110" y="630" width="40" height="40" as="geometry" />
        </mxCell>
        <mxCell id="5x88_MfWowOsIWMSALBa-29" value="&lt;div style=&quot;&quot;&gt;&lt;span style=&quot;background-color: initial;&quot;&gt;TimerStateTransfer&lt;/span&gt;&lt;/div&gt;&lt;div style=&quot;&quot;&gt;&lt;span style=&quot;background-color: initial;&quot;&gt;10ms&lt;/span&gt;&lt;/div&gt;" style="text;html=1;strokeColor=none;fillColor=none;align=left;verticalAlign=top;whiteSpace=wrap;rounded=0;fontFamily=Verdana;fontStyle=1;fontColor=#6D1F00;" parent="1" vertex="1">
          <mxGeometry x="155" y="620" width="135" height="40" as="geometry" />
        </mxCell>
        <mxCell id="5x88_MfWowOsIWMSALBa-30" value="&lt;div style=&quot;font-size: 9px;&quot;&gt;&lt;span style=&quot;color: rgb(51, 51, 51); font-family: &amp;quot;Courier New&amp;quot;; background-color: initial;&quot;&gt;curViewNum: int&lt;/span&gt;&lt;/div&gt;" style="text;html=1;strokeColor=none;fillColor=none;align=left;verticalAlign=top;whiteSpace=wrap;rounded=0;fontFamily=Verdana;fontStyle=1;fontColor=#6D1F00;fontSize=9;spacing=0;" parent="1" vertex="1">
          <mxGeometry x="155" y="660" width="105" height="30" as="geometry" />
        </mxCell>
        <mxCell id="5x88_MfWowOsIWMSALBa-31" value="" style="points=[[0.145,0.145,0],[0.5,0,0],[0.855,0.145,0],[1,0.5,0],[0.855,0.855,0],[0.5,1,0],[0.145,0.855,0],[0,0.5,0]];shape=mxgraph.bpmn.event;html=1;verticalLabelPosition=bottom;labelBackgroundColor=#ffffff;verticalAlign=top;align=center;perimeter=ellipsePerimeter;outlineConnect=0;aspect=fixed;outline=standard;symbol=timer;strokeWidth=2;fillColor=none;fontColor=#ffffff;strokeColor=#6D1F00;" parent="1" vertex="1">
          <mxGeometry x="110" y="700" width="40" height="40" as="geometry" />
        </mxCell>
        <mxCell id="5x88_MfWowOsIWMSALBa-32" value="&lt;div style=&quot;&quot;&gt;&lt;span style=&quot;background-color: initial;&quot;&gt;TimerPBMessage&lt;/span&gt;&lt;/div&gt;&lt;div style=&quot;&quot;&gt;&lt;span style=&quot;background-color: initial;&quot;&gt;10ms&lt;/span&gt;&lt;/div&gt;" style="text;html=1;strokeColor=none;fillColor=none;align=left;verticalAlign=top;whiteSpace=wrap;rounded=0;fontFamily=Verdana;fontStyle=1;fontColor=#6D1F00;" parent="1" vertex="1">
          <mxGeometry x="155" y="690" width="135" height="40" as="geometry" />
        </mxCell>
        <mxCell id="VfkOq3tu45j9xdCEDAoH-4" value="" style="group" vertex="1" connectable="0" parent="1">
          <mxGeometry x="158" y="600" width="132" height="20" as="geometry" />
        </mxCell>
        <mxCell id="VfkOq3tu45j9xdCEDAoH-1" value="" style="shape=message;html=1;html=1;outlineConnect=0;labelPosition=center;verticalLabelPosition=bottom;align=center;verticalAlign=top;strokeWidth=2;strokeColor=#B20000;" vertex="1" parent="VfkOq3tu45j9xdCEDAoH-4">
          <mxGeometry y="5" width="20" height="10" as="geometry" />
        </mxCell>
        <mxCell id="VfkOq3tu45j9xdCEDAoH-2" value="&lt;font color=&quot;#b20000&quot;&gt;Ping(curViewNum:int)&lt;/font&gt;" style="text;html=1;strokeColor=none;fillColor=none;align=left;verticalAlign=top;whiteSpace=wrap;rounded=0;spacing=0;fontFamily=Courier New;fontSize=9;spacingLeft=2;" vertex="1" parent="VfkOq3tu45j9xdCEDAoH-4">
          <mxGeometry x="22" width="110" height="20" as="geometry" />
        </mxCell>
        <mxCell id="VfkOq3tu45j9xdCEDAoH-5" value="handlePing(&amp;nbsp; &amp;nbsp; &amp;nbsp; &amp;nbsp; &amp;nbsp; &amp;nbsp; &amp;nbsp; &amp;nbsp; &amp;nbsp; &amp;nbsp; &amp;nbsp; &amp;nbsp; &amp;nbsp; &amp;nbsp; &amp;nbsp; &amp;nbsp; &amp;nbsp; &amp;nbsp; &amp;nbsp; &amp;nbsp; &amp;nbsp; &amp;nbsp; &amp;nbsp;)" style="rounded=1;whiteSpace=wrap;html=1;absoluteArcSize=1;arcSize=14;strokeWidth=2;fontFamily=Verdana;verticalAlign=top;align=left;spacingLeft=6;" vertex="1" parent="1">
          <mxGeometry x="550" y="80" width="290" height="270" as="geometry" />
        </mxCell>
        <mxCell id="VfkOq3tu45j9xdCEDAoH-6" value="" style="group" vertex="1" connectable="0" parent="1">
          <mxGeometry x="632" y="85" width="200" height="20" as="geometry" />
        </mxCell>
        <mxCell id="VfkOq3tu45j9xdCEDAoH-7" value="" style="shape=message;html=1;html=1;outlineConnect=0;labelPosition=center;verticalLabelPosition=bottom;align=center;verticalAlign=top;strokeWidth=2;strokeColor=#B20000;" vertex="1" parent="VfkOq3tu45j9xdCEDAoH-6">
          <mxGeometry y="5" width="20" height="10" as="geometry" />
        </mxCell>
        <mxCell id="VfkOq3tu45j9xdCEDAoH-8" value="&lt;font color=&quot;#b20000&quot;&gt;Ping(curViewNum:int)&lt;/font&gt;,&amp;nbsp;&lt;font color=&quot;#432d57&quot;&gt;&lt;b&gt;servAddr&lt;/b&gt;&lt;/font&gt;" style="text;html=1;strokeColor=none;fillColor=none;align=left;verticalAlign=top;whiteSpace=wrap;rounded=0;spacing=0;fontFamily=Courier New;fontSize=9;spacingLeft=2;" vertex="1" parent="VfkOq3tu45j9xdCEDAoH-6">
          <mxGeometry x="22" width="168" height="20" as="geometry" />
        </mxCell>
        <mxCell id="VfkOq3tu45j9xdCEDAoH-9" value="&lt;div style=&quot;font-size: 9px;&quot;&gt;&lt;span style=&quot;color: rgb(51, 51, 51); font-family: &amp;quot;Courier New&amp;quot;; background-color: initial;&quot;&gt;currView&lt;/span&gt;&lt;/div&gt;&lt;div style=&quot;font-size: 9px;&quot;&gt;&lt;span style=&quot;color: rgb(51, 51, 51); font-family: &amp;quot;Courier New&amp;quot;; background-color: initial;&quot;&gt;nextView&lt;/span&gt;&lt;/div&gt;&lt;div style=&quot;font-size: 9px;&quot;&gt;&lt;span style=&quot;color: rgb(51, 51, 51); font-family: &amp;quot;Courier New&amp;quot;; background-color: initial;&quot;&gt;primaryAck&lt;/span&gt;&lt;/div&gt;&lt;div style=&quot;font-size: 9px;&quot;&gt;&lt;span style=&quot;color: rgb(51, 51, 51); font-family: &amp;quot;Courier New&amp;quot;; background-color: initial;&quot;&gt;&lt;br&gt;&lt;/span&gt;&lt;/div&gt;" style="text;html=1;strokeColor=none;fillColor=none;align=left;verticalAlign=top;whiteSpace=wrap;rounded=0;fontFamily=Verdana;fontStyle=0;fontColor=#6D1F00;fontSize=9;spacing=0;" vertex="1" parent="1">
          <mxGeometry x="373" y="80" width="107" height="50" as="geometry" />
        </mxCell>
        <mxCell id="VfkOq3tu45j9xdCEDAoH-10" value="if (&lt;font color=&quot;#b20000&quot; style=&quot;font-size: 8px;&quot;&gt;curViewNum&lt;/font&gt; == currView.viewNum)&lt;br style=&quot;font-size: 8px;&quot;&gt;&amp;nbsp; &amp;nbsp; addToServerSet(&lt;font color=&quot;#432d57&quot; style=&quot;font-size: 8px;&quot;&gt;&lt;b style=&quot;font-size: 8px;&quot;&gt;servAddr&lt;/b&gt;&lt;/font&gt;)&lt;br style=&quot;font-size: 8px;&quot;&gt;&lt;br style=&quot;font-size: 8px;&quot;&gt;if (&lt;b style=&quot;border-color: var(--border-color); color: rgb(67, 45, 87);&quot;&gt;servAddr&lt;/b&gt;&amp;nbsp;== currView.primary) // 如果是 primary 的心跳&lt;br style=&quot;font-size: 8px;&quot;&gt;&amp;nbsp; &amp;nbsp; if (curViewNum == currView.viewNum)&lt;br style=&quot;font-size: 8px;&quot;&gt;&amp;nbsp; &amp;nbsp; &amp;nbsp; &amp;nbsp; primaryAck = true;&lt;br style=&quot;font-size: 8px;&quot;&gt;&amp;nbsp; &amp;nbsp; if (nextView != null) &lt;font color=&quot;#006600&quot;&gt;// if need to move View&lt;/font&gt;&lt;br style=&quot;font-size: 8px;&quot;&gt;&amp;nbsp; &amp;nbsp; &amp;nbsp; &amp;nbsp; primaryAck = &lt;font color=&quot;#0550ae&quot;&gt;false&lt;/font&gt;;&lt;br style=&quot;font-size: 8px;&quot;&gt;&amp;nbsp; &amp;nbsp; &amp;nbsp; &amp;nbsp; currView = nextView;&lt;br style=&quot;font-size: 8px;&quot;&gt;&amp;nbsp; &amp;nbsp; &amp;nbsp; &amp;nbsp; nextView = &lt;font color=&quot;#0550ae&quot;&gt;null&lt;/font&gt;;&lt;br style=&quot;font-size: 8px;&quot;&gt;&amp;nbsp; &amp;nbsp; &amp;nbsp; &amp;nbsp; &lt;font color=&quot;#cf222e&quot;&gt;return&lt;/font&gt; ReplyView(currView,&amp;nbsp;&lt;b style=&quot;border-color: var(--border-color); color: rgb(67, 45, 87);&quot;&gt;servAddr&lt;/b&gt;);&lt;br&gt;&lt;br&gt;// 不是 primary 的心跳，检查有没有 backup&lt;br&gt;if (currView.backup == null)&lt;br&gt;&amp;nbsp; &amp;nbsp;&amp;nbsp;&lt;font style=&quot;font-size: 8px;&quot;&gt;nextView &lt;span style=&quot;color: rgb(207, 34, 46);&quot;&gt;=&lt;/span&gt;&lt;span style=&quot;background-color: rgb(255, 255, 255); color: rgb(31, 35, 40);&quot;&gt; &lt;/span&gt;&lt;span style=&quot;color: rgb(130, 80, 223);&quot;&gt;View&lt;/span&gt;&lt;span style=&quot;background-color: rgb(255, 255, 255); color: rgb(31, 35, 40);&quot;&gt;(&lt;br&gt;&amp;nbsp; &amp;nbsp; &amp;nbsp; &amp;nbsp; &amp;nbsp; &amp;nbsp; &amp;nbsp; &amp;nbsp; &amp;nbsp; &amp;nbsp;&lt;/span&gt;&lt;span style=&quot;background-color: rgb(255, 255, 255);&quot;&gt;&lt;font color=&quot;#cc6600&quot;&gt;viewNum&lt;/font&gt;&lt;/span&gt;&lt;span style=&quot;background-color: rgb(255, 255, 255); color: rgb(31, 35, 40);&quot;&gt;: currView.&lt;/span&gt;&lt;span style=&quot;color: rgb(130, 80, 223);&quot;&gt;viewNum&lt;/span&gt;&lt;span style=&quot;background-color: rgb(255, 255, 255); color: rgb(31, 35, 40);&quot;&gt;&amp;nbsp;&lt;/span&gt;&lt;span style=&quot;color: rgb(207, 34, 46);&quot;&gt;+&lt;/span&gt;&lt;span style=&quot;background-color: rgb(255, 255, 255); color: rgb(31, 35, 40);&quot;&gt; &lt;/span&gt;&lt;span style=&quot;color: rgb(5, 80, 174);&quot;&gt;1&lt;/span&gt;&lt;span style=&quot;background-color: rgb(255, 255, 255); color: rgb(31, 35, 40);&quot;&gt;,&lt;br&gt;&amp;nbsp; &amp;nbsp; &amp;nbsp; &amp;nbsp; &amp;nbsp; &amp;nbsp; &amp;nbsp; &amp;nbsp; &amp;nbsp; &amp;nbsp;&lt;/span&gt;&lt;span style=&quot;background-color: rgb(255, 255, 255);&quot;&gt;&lt;font color=&quot;#cc6600&quot;&gt;primaryAddr&lt;/font&gt;&lt;/span&gt;&lt;span style=&quot;background-color: rgb(255, 255, 255); color: rgb(31, 35, 40);&quot;&gt;: currView.&lt;/span&gt;&lt;span style=&quot;color: rgb(130, 80, 223);&quot;&gt;primary&lt;/span&gt;&lt;span style=&quot;background-color: rgb(255, 255, 255); color: rgb(31, 35, 40);&quot;&gt;, &lt;br&gt;&amp;nbsp; &amp;nbsp; &amp;nbsp; &amp;nbsp; &amp;nbsp; &amp;nbsp; &amp;nbsp; &amp;nbsp; &amp;nbsp; &amp;nbsp;&lt;/span&gt;&lt;span style=&quot;background-color: rgb(255, 255, 255);&quot;&gt;&lt;font color=&quot;#cc6600&quot;&gt;backupAddr&lt;/font&gt;&lt;/span&gt;: servAddr);&lt;br&gt;&amp;nbsp; &amp;nbsp;&amp;nbsp;if (primaryAck) // 如果 primary ack 了，直接移动 view&lt;br style=&quot;border-color: var(--border-color);&quot;&gt;&lt;span style=&quot;background-color: rgb(251, 251, 251);&quot;&gt;&amp;nbsp; &amp;nbsp; &amp;nbsp; &amp;nbsp;&amp;nbsp;&lt;/span&gt;&lt;span style=&quot;background-color: rgb(255, 255, 255); color: rgb(31, 35, 40);&quot;&gt;currView &lt;/span&gt;&lt;span style=&quot;background-color: rgb(255, 255, 255); color: rgb(207, 34, 46);&quot;&gt;=&lt;/span&gt;&lt;span style=&quot;background-color: rgb(255, 255, 255); color: rgb(31, 35, 40);&quot;&gt;&amp;nbsp;&lt;/span&gt;&lt;span style=&quot;background-color: rgb(255, 255, 255);&quot;&gt;&lt;font color=&quot;#cf222e&quot;&gt;nextView;&lt;br&gt;&lt;/font&gt;&lt;/span&gt;&amp;nbsp; &amp;nbsp; &amp;nbsp; &amp;nbsp; nextView = null;&lt;br&gt;&amp;nbsp; &amp;nbsp; &amp;nbsp; &amp;nbsp; primaryAck = false;&lt;br&gt;// 无论如何都礼貌性地回复 currView&lt;br&gt;&lt;font style=&quot;border-color: var(--border-color);&quot; color=&quot;#cf222e&quot;&gt;return&lt;/font&gt;&amp;nbsp;ReplyView(currView,&amp;nbsp;&lt;b style=&quot;border-color: var(--border-color); color: rgb(67, 45, 87);&quot;&gt;servAddr&lt;/b&gt;);&lt;br&gt;&lt;/font&gt;" style="text;html=1;strokeColor=none;fillColor=none;align=left;verticalAlign=top;whiteSpace=wrap;rounded=0;fontFamily=Courier New;fontSize=8;spacing=0;" vertex="1" parent="1">
          <mxGeometry x="560" y="110" width="270" height="230" as="geometry" />
        </mxCell>
      </root>
    </mxGraphModel>
  </diagram>
</mxfile>
